<?xml version="1.0" encoding="UTF-8"?>
<svg id="Layer_1" xmlns="http://www.w3.org/2000/svg" version="1.1" viewBox="0 0 150 150">
  <!-- Generator: Adobe Illustrator 29.1.0, SVG Export Plug-In . SVG Version: 2.1.0 Build 142)  -->
  <defs>
    <style>
      .st0 {
        fill: #ef3d6f;
      }
    </style>
  </defs>
  <path class="st0" d="M108.8,90.3v15.1h-37.7c-11,0-20.6-6.1-25.7-15.1-.7-1.3-1.4-2.7-1.9-4.1-1.1-2.8-1.8-5.8-2-8.9v-4.1c0-.7.1-1.4.2-2.1.2-1.4.5-2.8.8-4.1,3.5-12.7,15-21.9,28.5-21.9s25,9.3,28.5,21.9h-16.1c-2.6-4.1-7.2-6.9-12.4-6.9s-9.8,2.7-12.4,6.9c-.8,1.3-1.4,2.6-1.8,4.1-.4,1.3-.6,2.7-.6,4.1,0,4.3,1.8,8.2,4.7,11,2.7,2.6,6.2,4.1,10.2,4.1h37.7Z"/>
  <path class="st0" d="M108.8,71.1v15.1h-27.5c2.9-2.7,4.7-6.6,4.7-11s-.2-2.8-.6-4.1h23.4Z"/>
</svg>